<svg width="37" height="37" viewBox="0 0 37 37" fill="none" xmlns="http://www.w3.org/2000/svg">
<path d="M31 18.5C31 25.4036 25.4036 31 18.5 31C11.5964 31 6 25.4036 6 18.5C6 11.5964 11.5964 6 18.5 6C25.4036 6 31 11.5964 31 18.5Z" fill="#07080B"/>
<path fill-rule="evenodd" clip-rule="evenodd" d="M37 18.5C37 28.7173 28.7173 37 18.5 37C8.28273 37 0 28.7173 0 18.5C0 8.28273 8.28273 0 18.5 0C28.7173 0 37 8.28273 37 18.5ZM18.5 31C25.4036 31 31 25.4036 31 18.5C31 11.5964 25.4036 6 18.5 6C11.5964 6 6 11.5964 6 18.5C6 25.4036 11.5964 31 18.5 31Z" fill="white"/>
<path fill-rule="evenodd" clip-rule="evenodd" d="M24.9813 14.8953L19.0296 22.8953C18.7833 23.2264 18.4115 23.4414 18.0017 23.4897C17.5919 23.538 17.1803 23.4153 16.8638 23.1506L13.0377 19.9506L14.9623 17.6494L17.5704 19.8307L22.5743 13.1047L24.9813 14.8953Z" fill="white"/>
</svg>
